<svg width="24" height="24" viewBox="0 0 24 24" fill="none" xmlns="http://www.w3.org/2000/svg">
<g clip-path="url(#clip0_778_2)">
<path d="M19 0H5C2.23858 0 0 2.23858 0 5V19C0 21.7614 2.23858 24 5 24H19C21.7614 24 24 21.7614 24 19V5C24 2.23858 21.7614 0 19 0Z" fill="#F3F3F3"/>
<path d="M19.6694 6.58096C20.1771 7.08864 20.1771 7.91175 19.6694 8.41943L10.6694 17.4194C10.1618 17.9271 9.33864 17.9271 8.83096 17.4194L4.33096 12.9194C3.82327 12.4118 3.82327 11.5886 4.33096 11.081C4.83864 10.5733 5.66175 10.5733 6.16943 11.081L9.7502 14.6617L17.831 6.58096C18.3386 6.07327 19.1618 6.07327 19.6694 6.58096Z" fill="#FBBC04"/>
</g>
<defs>
<clipPath id="clip0_778_2">
<rect width="24" height="24" fill="white"/>
</clipPath>
</defs>
</svg>
